<svg width="182" height="23" viewBox="0 0 182 23" fill="none" xmlns="http://www.w3.org/2000/svg">
<path d="M2.97 22H0.15V0.999999H2.97V22ZM25.6713 0.999999V19.24L23.0313 15.19V0.999999H25.6713ZM9.26133 0.999999H11.8713V22H9.26133V0.999999ZM22.9713 22L13.0413 7.12V2.74L25.9113 22H22.9713ZM47.4771 0.999999L40.6971 20.44L39.3471 16.36L44.6271 0.999999H47.4771ZM32.4771 0.999999L39.8571 22H36.9171L29.5371 0.999999H32.4771ZM51.3609 0.999999H54.1809V10.09H62.5209V12.4H54.1809V18.49H51.3609V0.999999ZM63.2109 0.999999L63.0309 3.37H55.3809V0.999999H63.2109ZM51.3609 22V19.63H63.6909L63.5409 22H51.3609ZM79.4454 1.75L78.8754 3.97C77.6454 3.43 76.1154 3.07 74.8554 3.04C73.8954 3.01 72.6054 3.19 71.6154 3.61V1.15C72.6054 0.789999 73.7454 0.64 74.8254 0.669999C76.4754 0.699999 78.1554 1.12 79.4454 1.75ZM80.1054 16.45C80.1054 17.35 79.9254 18.16 79.5654 18.85H76.6554C77.0754 18.34 77.4054 17.59 77.4054 16.69C77.4054 12.49 70.2054 12.55 68.3154 8.32C67.9254 7.51 67.7454 6.58 67.8054 5.53C68.0154 3.76 68.9754 2.47 70.4454 1.69V5.32C70.4454 6.22 70.6854 6.97 71.0754 7.66C72.9354 10.42 80.1054 10.54 80.1054 16.45ZM73.0254 19.99H78.7554C77.6754 21.43 75.7254 22.27 73.2354 22.36C72.9354 22.36 72.6354 22.36 72.3354 22.33C70.2354 22.24 68.4354 21.55 67.1454 20.65L67.7454 18.4C69.5454 19.45 71.2554 19.99 73.0254 19.99ZM82.6252 3.4L82.7752 0.999999H97.8352L97.6852 3.4H82.6252ZM88.8052 22V4.54H91.6552V22H88.8052ZM121.091 0.999999L121.541 5.38H119.021L113.471 20.56L112.331 17.47L118.301 0.999999H121.091ZM105.041 0.999999L112.781 22H110.171L104.141 5.38H101.831L102.281 0.999999H105.041ZM120.551 22L118.991 6.52H121.661L123.281 22H120.551ZM100.151 22L101.711 6.52H104.171L102.761 22H100.151ZM128.734 0.999999H131.554V10.09H139.894V12.4H131.554V18.49H128.734V0.999999ZM140.584 0.999999L140.404 3.37H132.754V0.999999H140.584ZM128.734 22V19.63H141.064L140.914 22H128.734ZM162.458 0.999999V19.24L159.818 15.19V0.999999H162.458ZM146.048 0.999999H148.658V22H146.048V0.999999ZM159.758 22L149.828 7.12V2.74L162.698 22H159.758ZM166.414 3.4L166.564 0.999999H181.624L181.474 3.4H166.414ZM172.594 22V4.54H175.444V22H172.594Z" fill="white"/>
</svg>
