<svg width="24" height="31" viewBox="0 0 24 31" fill="none" xmlns="http://www.w3.org/2000/svg">
<path d="M11.7234 16.1978C9.52394 16.1978 7.7347 14.3531 7.7347 12.0857C7.7347 9.81815 9.524 7.97345 11.7234 7.97345C13.9228 7.97345 15.712 9.81821 15.712 12.0857C15.712 14.3531 13.9227 16.1978 11.7234 16.1978ZM11.7234 9.08453C10.1185 9.08453 8.81285 10.4307 8.81285 12.0855C8.81285 13.7398 10.1185 15.0862 11.7234 15.0862C13.3282 15.0862 14.6339 13.74 14.6339 12.0855C14.6341 10.4307 13.3282 9.08453 11.7234 9.08453V9.08453Z" fill="white"/>
<path d="M11.7234 30.9297L11.3395 30.529C10.8766 30.0452 0 18.6072 0 12.0863C0 5.42185 5.25899 0 11.723 0C18.1872 0 23.4461 5.42197 23.4461 12.0863C23.4461 18.6072 12.5698 30.0452 12.1065 30.529L11.7234 30.9297ZM11.7234 1.11109C5.8535 1.11109 1.07817 6.03447 1.07817 12.0862C1.07817 17.501 9.77428 27.2263 11.7234 29.3371C13.6722 27.2261 22.3685 17.5007 22.3685 12.0862C22.3688 6.03465 17.5933 1.11109 11.7234 1.11109V1.11109Z" fill="white"/>
</svg>
